<?xml version="1.0" encoding="UTF-8" standalone="no"?>
<!DOCTYPE svg PUBLIC "-//W3C//DTD SVG 1.1//EN" "http://www.w3.org/Graphics/SVG/1.1/DTD/svg11.dtd">
<svg version="1.1" xmlns="http://www.w3.org/2000/svg" xmlns:xlink="http://www.w3.org/1999/xlink" preserveAspectRatio="xMidYMid meet" viewBox="0 0 640 640" width="24" height="24"><defs><path d="M241.97 491.59C241.97 520.23 208.53 543.48 167.35 543.48C126.16 543.48 92.73 520.23 92.73 491.59C92.73 462.95 126.16 439.7 167.35 439.7C208.53 439.7 241.97 462.95 241.97 491.59Z" id="e3a2sPN378"></path><path d="M550.45 425.08C550.45 453.72 517.02 476.97 475.83 476.97C434.65 476.97 401.21 453.72 401.21 425.08C401.21 396.43 434.65 373.18 475.83 373.18C517.02 373.18 550.45 396.43 550.45 425.08Z" id="aQ6HFhw3M"></path><path d="M231.97 141.31C237.49 141.31 241.97 145.79 241.97 151.31C241.97 220.27 241.97 417.17 241.97 486.14C241.97 491.66 237.49 496.14 231.97 496.14C223.36 496.14 207.55 496.14 198.94 496.14C193.42 496.14 188.94 491.66 188.94 486.14C188.94 417.17 188.94 220.27 188.94 151.31C188.94 145.79 193.42 141.31 198.94 141.31C207.55 141.31 223.36 141.31 231.97 141.31Z" id="canOcOC5b"></path><path d="M533.64 90.98C539.16 90.98 543.64 95.46 543.64 100.98C543.64 167.77 543.64 358.14 543.64 424.92C543.64 430.45 539.16 434.92 533.64 434.92C525.03 434.92 509.21 434.92 500.61 434.92C495.08 434.92 490.61 430.45 490.61 424.92C490.61 358.14 490.61 167.77 490.61 100.98C490.61 95.46 495.08 90.98 500.61 90.98C509.21 90.98 525.03 90.98 533.64 90.98Z" id="d12y7jltAg"></path><path d="M524.53 82.81C528.45 82.11 532.21 84.72 532.91 88.65C534.73 98.86 538.93 122.39 540.75 132.6C541.45 136.53 538.84 140.28 534.91 140.98C467.56 153 272.63 187.79 205.28 199.81C201.35 200.51 197.6 197.9 196.9 193.97C195.07 183.76 190.88 160.23 189.05 150.01C188.35 146.09 190.97 142.34 194.89 141.63C262.24 129.62 457.18 94.83 524.53 82.81Z" id="b9cn0alp"></path></defs><g><g><g><use xlink:href="#e3a2sPN378" opacity="1" fill="#150505" fill-opacity="1"></use></g><g><use xlink:href="#aQ6HFhw3M" opacity="1" fill="#150505" fill-opacity="1"></use></g><g><use xlink:href="#canOcOC5b" opacity="1" fill="#150505" fill-opacity="1"></use></g><g><use xlink:href="#d12y7jltAg" opacity="1" fill="#150505" fill-opacity="1"></use></g><g><use xlink:href="#b9cn0alp" opacity="1" fill="#150505" fill-opacity="1"></use></g></g></g></svg>